<svg width="1920" height="1080" viewBox="0 0 1920 1080" fill="none" xmlns="http://www.w3.org/2000/svg">
<g clip-path="url(#clip0_1_2)">
<rect width="1920" height="1080" fill="transparent"/>
<mask id="path-1-inside-1_1_2" fill="white">
<path d="M0 73H1920V1080H0V73Z"/>
</mask>
<path d="M0 73H1920V1080H0V73Z" fill="#0B0B0B"/>
<path d="M0 74H1920V72H0V74Z" fill="#27272A" mask="url(#path-1-inside-1_1_2)"/>
<mask id="path-3-outside-2_1_2" maskUnits="userSpaceOnUse" x="0" y="0" width="1920" height="74" fill="black">
<rect fill="white" width="1920" height="74"/>
<path d="M0 0H1920V73H0V0Z"/>
</mask>
<path d="M0 0H1920V73H0V0Z" fill="#151515"/>
<path d="M1920 72H0V74H1920V72Z" fill="#27272A" mask="url(#path-3-outside-2_1_2)"/>
<circle cx="1884" cy="36" r="20" fill="url(#paint0_linear_1_2)"/>
<path d="M1871 38.4004L1872.79 38.2441C1872.87 38.9603 1873.07 39.5495 1873.38 40.0117C1873.69 40.4674 1874.17 40.8385 1874.82 41.125C1875.47 41.4049 1876.2 41.5449 1877.02 41.5449C1877.74 41.5449 1878.38 41.4375 1878.93 41.2227C1879.49 41.0078 1879.9 40.7148 1880.16 40.3438C1880.44 39.9661 1880.57 39.556 1880.57 39.1133C1880.57 38.6641 1880.44 38.2734 1880.18 37.9414C1879.92 37.6029 1879.49 37.3197 1878.89 37.0918C1878.51 36.9421 1877.66 36.7109 1876.34 36.3984C1875.03 36.0794 1874.11 35.7799 1873.58 35.5C1872.9 35.1419 1872.39 34.6992 1872.05 34.1719C1871.71 33.638 1871.55 33.0423 1871.55 32.3848C1871.55 31.6621 1871.75 30.9883 1872.16 30.3633C1872.57 29.7318 1873.17 29.2533 1873.96 28.9277C1874.75 28.6022 1875.62 28.4395 1876.59 28.4395C1877.65 28.4395 1878.58 28.612 1879.39 28.957C1880.2 29.2956 1880.83 29.7969 1881.27 30.4609C1881.7 31.125 1881.94 31.877 1881.97 32.7168L1880.15 32.8535C1880.05 31.9486 1879.72 31.265 1879.16 30.8027C1878.6 30.3405 1877.77 30.1094 1876.67 30.1094C1875.52 30.1094 1874.68 30.321 1874.16 30.7441C1873.64 31.1608 1873.38 31.6654 1873.38 32.2578C1873.38 32.7721 1873.56 33.1953 1873.93 33.5273C1874.3 33.8594 1875.25 34.2012 1876.78 34.5527C1878.33 34.8978 1879.38 35.2005 1879.96 35.4609C1880.79 35.8451 1881.41 36.3333 1881.8 36.9258C1882.2 37.5117 1882.4 38.1888 1882.4 38.957C1882.4 39.7188 1882.18 40.4382 1881.74 41.1152C1881.31 41.7858 1880.68 42.3099 1879.86 42.6875C1879.05 43.0586 1878.13 43.2441 1877.11 43.2441C1875.81 43.2441 1874.72 43.0553 1873.84 42.6777C1872.97 42.3001 1872.28 41.7337 1871.78 40.9785C1871.29 40.2168 1871.03 39.3574 1871 38.4004ZM1895.2 37.9805L1897.1 38.459C1896.7 40.015 1895.98 41.2031 1894.95 42.0234C1893.92 42.8372 1892.66 43.2441 1891.17 43.2441C1889.62 43.2441 1888.37 42.9316 1887.4 42.3066C1886.43 41.6751 1885.7 40.7637 1885.19 39.5723C1884.69 38.3809 1884.44 37.1016 1884.44 35.7344C1884.44 34.2435 1884.72 32.9447 1885.29 31.8379C1885.86 30.7246 1886.67 29.8815 1887.72 29.3086C1888.78 28.7292 1889.93 28.4395 1891.2 28.4395C1892.63 28.4395 1893.83 28.804 1894.81 29.5332C1895.79 30.2624 1896.47 31.2878 1896.85 32.6094L1894.99 33.0488C1894.65 32.0072 1894.17 31.2487 1893.54 30.7734C1892.91 30.2982 1892.12 30.0605 1891.16 30.0605C1890.06 30.0605 1889.14 30.3242 1888.39 30.8516C1887.66 31.3789 1887.14 32.0885 1886.84 32.9805C1886.54 33.8659 1886.39 34.7806 1886.39 35.7246C1886.39 36.9421 1886.57 38.0065 1886.92 38.918C1887.28 39.8229 1887.83 40.5 1888.58 40.9492C1889.33 41.3984 1890.14 41.623 1891.01 41.623C1892.07 41.623 1892.97 41.3171 1893.71 40.7051C1894.44 40.0931 1894.94 39.1849 1895.2 37.9805Z" fill="white"/>
<path fill-rule="evenodd" clip-rule="evenodd" d="M30.8555 23.1433C31.1349 23.1433 31.4066 23.2344 31.6296 23.4027C31.8526 23.5709 32.0147 23.8073 32.0915 24.0759L33.4851 28.9552C33.7852 30.006 34.3481 30.9629 35.1207 31.7357C35.8934 32.5084 36.8502 33.0714 37.9009 33.3715L42.7794 34.7654C43.0479 34.8423 43.284 35.0045 43.4521 35.2275C43.6201 35.4505 43.711 35.7222 43.711 36.0015C43.711 36.2807 43.6201 36.5524 43.4521 36.7754C43.284 36.9984 43.0479 37.1607 42.7794 37.2376L37.9009 38.6314C36.8502 38.9315 35.8934 39.4945 35.1207 40.2672C34.3481 41.04 33.7852 41.9969 33.4851 43.0477L32.0915 47.927C32.0146 48.1955 31.8524 48.4316 31.6294 48.5997C31.4064 48.7678 31.1347 48.8587 30.8555 48.8587C30.5763 48.8587 30.3046 48.7678 30.0817 48.5997C29.8587 48.4316 29.6965 48.1955 29.6196 47.927L28.2259 43.0477C27.9259 41.9969 27.3629 41.04 26.5903 40.2672C25.8177 39.4945 24.8608 38.9315 23.8102 38.6314L18.9316 37.2376C18.6632 37.1607 18.4271 36.9984 18.259 36.7754C18.0909 36.5524 18 36.2807 18 36.0015C18 35.7222 18.0909 35.4505 18.259 35.2275C18.4271 35.0045 18.6632 34.8423 18.9316 34.7654L23.8102 33.3715C24.8608 33.0714 25.8177 32.5084 26.5903 31.7357C27.3629 30.9629 27.9259 30.006 28.2259 28.9552L29.6196 24.0759C29.6963 23.8073 29.8584 23.5709 30.0814 23.4027C30.3044 23.2344 30.5762 23.1433 30.8555 23.1433ZM46.2833 18C46.5701 17.9998 46.8487 18.0956 47.0748 18.2721C47.3009 18.4485 47.4616 18.6955 47.5312 18.9738L47.9734 20.7499C48.378 22.3615 49.6362 23.6199 51.2476 24.0245L53.0235 24.4668C53.3022 24.5359 53.5499 24.6963 53.7268 24.9225C53.9038 25.1487 54 25.4277 54 25.7149C54 26.0021 53.9038 26.2811 53.7268 26.5073C53.5499 26.7335 53.3022 26.894 53.0235 26.963L51.2476 27.4053C49.6362 27.8099 48.378 29.0683 47.9734 30.6799L47.5312 32.456C47.4621 32.7348 47.3017 32.9825 47.0756 33.1595C46.8494 33.3365 46.5705 33.4327 46.2833 33.4327C45.9961 33.4327 45.7171 33.3365 45.491 33.1595C45.2648 32.9825 45.1044 32.7348 45.0353 32.456L44.5931 30.6799C44.3953 29.8886 43.9861 29.1659 43.4095 28.5891C42.8328 28.0123 42.1102 27.6032 41.319 27.4053L39.543 26.963C39.2643 26.894 39.0167 26.7335 38.8397 26.5073C38.6627 26.2811 38.5665 26.0021 38.5665 25.7149C38.5665 25.4277 38.6627 25.1487 38.8397 24.9225C39.0167 24.6963 39.2643 24.5359 39.543 24.4668L41.319 24.0245C42.1102 23.8267 42.8328 23.4175 43.4095 22.8407C43.9861 22.2639 44.3953 21.5413 44.5931 20.7499L45.0353 18.9738C45.1049 18.6955 45.2656 18.4485 45.4917 18.2721C45.7178 18.0956 45.9964 17.9998 46.2833 18ZM43.712 41.1447C43.982 41.1446 44.2452 41.2295 44.4643 41.3873C44.6833 41.5452 44.8471 41.768 44.9325 42.0242L45.6079 44.0524C45.865 44.8187 46.465 45.4222 47.2329 45.6777L49.2608 46.3549C49.5162 46.4406 49.7381 46.6044 49.8954 46.8231C50.0527 47.0418 50.1373 47.3044 50.1373 47.5738C50.1373 47.8432 50.0527 48.1058 49.8954 48.3245C49.7381 48.5433 49.5162 48.707 49.2608 48.7928L47.2329 49.47C46.4667 49.7271 45.8633 50.3272 45.6079 51.0953L44.9308 53.1234C44.845 53.3788 44.6813 53.6008 44.4626 53.7581C44.2439 53.9154 43.9813 54 43.712 54C43.4426 54 43.18 53.9154 42.9614 53.7581C42.7427 53.6008 42.5789 53.3788 42.4932 53.1234L41.8161 51.0953C41.6898 50.7169 41.4772 50.373 41.1952 50.0909C40.9132 49.8089 40.5694 49.5963 40.191 49.47L38.1631 48.7928C37.9078 48.707 37.6858 48.5433 37.5285 48.3245C37.3713 48.1058 37.2867 47.8432 37.2867 47.5738C37.2867 47.3044 37.3713 47.0418 37.5285 46.8231C37.6858 46.6044 37.9078 46.4406 38.1631 46.3549L40.191 45.6777C40.9573 45.4205 41.5607 44.8205 41.8161 44.0524L42.4932 42.0242C42.5784 41.7683 42.742 41.5457 42.9607 41.3878C43.1794 41.23 43.4422 41.1449 43.712 41.1447Z" fill="url(#paint1_linear_1_2)"/>
<rect x="71" y="16" width="1" height="40" fill="#27272A"/>
<rect x="88" y="16" width="90" height="40" rx="8" fill="#27272A"/>
<path d="M102.593 41.112C101.558 41.112 100.614 40.872 99.7607 40.392C98.9074 39.9013 98.23 39.224 97.7287 38.36C97.238 37.4853 96.9927 36.504 96.9927 35.416C96.9927 34.328 97.238 33.352 97.7287 32.488C98.23 31.6133 98.9074 30.936 99.7607 30.456C100.614 29.9653 101.558 29.72 102.593 29.72C103.638 29.72 104.587 29.9653 105.441 30.456C106.294 30.936 106.966 31.608 107.457 32.472C107.947 33.336 108.193 34.3173 108.193 35.416C108.193 36.5147 107.947 37.496 107.457 38.36C106.966 39.224 106.294 39.9013 105.441 40.392C104.587 40.872 103.638 41.112 102.593 41.112ZM102.593 39.848C103.371 39.848 104.07 39.6667 104.689 39.304C105.318 38.9413 105.809 38.424 106.161 37.752C106.523 37.08 106.705 36.3013 106.705 35.416C106.705 34.52 106.523 33.7413 106.161 33.08C105.809 32.408 105.323 31.8907 104.705 31.528C104.086 31.1653 103.382 30.984 102.593 30.984C101.803 30.984 101.099 31.1653 100.481 31.528C99.862 31.8907 99.3714 32.408 99.0087 33.08C98.6567 33.7413 98.4807 34.52 98.4807 35.416C98.4807 36.3013 98.6567 37.08 99.0087 37.752C99.3714 38.424 99.862 38.9413 100.481 39.304C101.11 39.6667 101.814 39.848 102.593 39.848ZM113.379 39.656L116.099 32.232H117.651L114.211 41H112.515L109.075 32.232H110.643L113.379 39.656ZM127.084 36.28C127.084 36.5573 127.068 36.8507 127.036 37.16H120.028C120.081 38.024 120.374 38.7013 120.908 39.192C121.452 39.672 122.108 39.912 122.876 39.912C123.505 39.912 124.028 39.768 124.444 39.48C124.87 39.1813 125.169 38.7867 125.34 38.296H126.908C126.673 39.1387 126.204 39.8267 125.5 40.36C124.796 40.8827 123.921 41.144 122.876 41.144C122.044 41.144 121.297 40.9573 120.636 40.584C119.985 40.2107 119.473 39.6827 119.1 39C118.726 38.3067 118.54 37.5067 118.54 36.6C118.54 35.6933 118.721 34.8987 119.084 34.216C119.446 33.5333 119.953 33.0107 120.604 32.648C121.265 32.2747 122.022 32.088 122.876 32.088C123.708 32.088 124.444 32.2693 125.084 32.632C125.724 32.9947 126.214 33.496 126.556 34.136C126.908 34.7653 127.084 35.48 127.084 36.28ZM125.58 35.976C125.58 35.4213 125.457 34.9467 125.212 34.552C124.966 34.1467 124.63 33.8427 124.204 33.64C123.788 33.4267 123.324 33.32 122.812 33.32C122.076 33.32 121.446 33.5547 120.924 34.024C120.412 34.4933 120.118 35.144 120.044 35.976H125.58ZM130.461 33.656C130.717 33.1547 131.08 32.7653 131.549 32.488C132.029 32.2107 132.611 32.072 133.293 32.072V33.576H132.909C131.277 33.576 130.461 34.4613 130.461 36.232V41H129.005V32.232H130.461V33.656ZM138.238 39.656L140.958 32.232H142.51L139.07 41H137.374L133.934 32.232H135.502L138.238 39.656ZM144.695 30.808C144.418 30.808 144.183 30.712 143.991 30.52C143.799 30.328 143.703 30.0933 143.703 29.816C143.703 29.5387 143.799 29.304 143.991 29.112C144.183 28.92 144.418 28.824 144.695 28.824C144.962 28.824 145.186 28.92 145.367 29.112C145.559 29.304 145.655 29.5387 145.655 29.816C145.655 30.0933 145.559 30.328 145.367 30.52C145.186 30.712 144.962 30.808 144.695 30.808ZM145.399 32.232V41H143.943V32.232H145.399ZM155.88 36.28C155.88 36.5573 155.864 36.8507 155.832 37.16H148.824C148.878 38.024 149.171 38.7013 149.704 39.192C150.248 39.672 150.904 39.912 151.672 39.912C152.302 39.912 152.824 39.768 153.24 39.48C153.667 39.1813 153.966 38.7867 154.136 38.296H155.704C155.47 39.1387 155 39.8267 154.296 40.36C153.592 40.8827 152.718 41.144 151.672 41.144C150.84 41.144 150.094 40.9573 149.432 40.584C148.782 40.2107 148.27 39.6827 147.896 39C147.523 38.3067 147.336 37.5067 147.336 36.6C147.336 35.6933 147.518 34.8987 147.88 34.216C148.243 33.5333 148.75 33.0107 149.4 32.648C150.062 32.2747 150.819 32.088 151.672 32.088C152.504 32.088 153.24 32.2693 153.88 32.632C154.52 32.9947 155.011 33.496 155.352 34.136C155.704 34.7653 155.88 35.48 155.88 36.28ZM154.376 35.976C154.376 35.4213 154.254 34.9467 154.008 34.552C153.763 34.1467 153.427 33.8427 153 33.64C152.584 33.4267 152.12 33.32 151.608 33.32C150.872 33.32 150.243 33.5547 149.72 34.024C149.208 34.4933 148.915 35.144 148.84 35.976H154.376ZM169.482 32.232L166.746 41H165.242L163.13 34.04L161.018 41H159.514L156.762 32.232H158.25L160.266 39.592L162.442 32.232H163.93L166.058 39.608L168.042 32.232H169.482Z" fill="white"/>
<rect x="1431" y="121" width="113" height="40" rx="8" fill="#FF7B29"/>
<path d="M1454.3 143.83H1450.04L1449.26 146H1447.91L1451.44 136.298H1452.91L1456.43 146H1455.08L1454.3 143.83ZM1453.93 142.794L1452.17 137.866L1450.41 142.794H1453.93ZM1457.49 142.136C1457.49 141.352 1457.65 140.666 1457.96 140.078C1458.28 139.481 1458.71 139.019 1459.26 138.692C1459.82 138.365 1460.45 138.202 1461.14 138.202C1461.74 138.202 1462.29 138.342 1462.81 138.622C1463.32 138.893 1463.71 139.252 1463.98 139.7V135.64H1465.27V146H1463.98V144.558C1463.73 145.015 1463.36 145.393 1462.86 145.692C1462.37 145.981 1461.79 146.126 1461.13 146.126C1460.45 146.126 1459.82 145.958 1459.26 145.622C1458.71 145.286 1458.28 144.815 1457.96 144.208C1457.65 143.601 1457.49 142.911 1457.49 142.136ZM1463.98 142.15C1463.98 141.571 1463.87 141.067 1463.63 140.638C1463.4 140.209 1463.08 139.882 1462.68 139.658C1462.29 139.425 1461.85 139.308 1461.38 139.308C1460.9 139.308 1460.47 139.42 1460.08 139.644C1459.68 139.868 1459.37 140.195 1459.14 140.624C1458.91 141.053 1458.79 141.557 1458.79 142.136C1458.79 142.724 1458.91 143.237 1459.14 143.676C1459.37 144.105 1459.68 144.437 1460.08 144.67C1460.47 144.894 1460.9 145.006 1461.38 145.006C1461.85 145.006 1462.29 144.894 1462.68 144.67C1463.08 144.437 1463.4 144.105 1463.63 143.676C1463.87 143.237 1463.98 142.729 1463.98 142.15ZM1466.95 142.136C1466.95 141.352 1467.11 140.666 1467.42 140.078C1467.74 139.481 1468.18 139.019 1468.73 138.692C1469.29 138.365 1469.91 138.202 1470.6 138.202C1471.2 138.202 1471.75 138.342 1472.27 138.622C1472.78 138.893 1473.17 139.252 1473.44 139.7V135.64H1474.73V146H1473.44V144.558C1473.19 145.015 1472.82 145.393 1472.32 145.692C1471.83 145.981 1471.25 146.126 1470.59 146.126C1469.91 146.126 1469.29 145.958 1468.73 145.622C1468.18 145.286 1467.74 144.815 1467.42 144.208C1467.11 143.601 1466.95 142.911 1466.95 142.136ZM1473.44 142.15C1473.44 141.571 1473.33 141.067 1473.09 140.638C1472.86 140.209 1472.54 139.882 1472.14 139.658C1471.75 139.425 1471.32 139.308 1470.84 139.308C1470.36 139.308 1469.93 139.42 1469.54 139.644C1469.15 139.868 1468.83 140.195 1468.6 140.624C1468.37 141.053 1468.25 141.557 1468.25 142.136C1468.25 142.724 1468.37 143.237 1468.6 143.676C1468.83 144.105 1469.15 144.437 1469.54 144.67C1469.93 144.894 1470.36 145.006 1470.84 145.006C1471.32 145.006 1471.75 144.894 1472.14 144.67C1472.54 144.437 1472.86 144.105 1473.09 143.676C1473.33 143.237 1473.44 142.729 1473.44 142.15ZM1488.29 146H1487.02L1481.89 138.23V146H1480.62V136.228H1481.89L1487.02 143.984V136.228H1488.29V146ZM1497.46 141.87C1497.46 142.113 1497.45 142.369 1497.42 142.64H1491.29C1491.33 143.396 1491.59 143.989 1492.06 144.418C1492.53 144.838 1493.11 145.048 1493.78 145.048C1494.33 145.048 1494.79 144.922 1495.15 144.67C1495.52 144.409 1495.79 144.063 1495.93 143.634H1497.31C1497.1 144.371 1496.69 144.973 1496.07 145.44C1495.46 145.897 1494.69 146.126 1493.78 146.126C1493.05 146.126 1492.4 145.963 1491.82 145.636C1491.25 145.309 1490.8 144.847 1490.47 144.25C1490.15 143.643 1489.98 142.943 1489.98 142.15C1489.98 141.357 1490.14 140.661 1490.46 140.064C1490.78 139.467 1491.22 139.009 1491.79 138.692C1492.37 138.365 1493.03 138.202 1493.78 138.202C1494.51 138.202 1495.15 138.361 1495.71 138.678C1496.27 138.995 1496.7 139.434 1497 139.994C1497.31 140.545 1497.46 141.17 1497.46 141.87ZM1496.14 141.604C1496.14 141.119 1496.04 140.703 1495.82 140.358C1495.61 140.003 1495.31 139.737 1494.94 139.56C1494.58 139.373 1494.17 139.28 1493.72 139.28C1493.08 139.28 1492.53 139.485 1492.07 139.896C1491.62 140.307 1491.37 140.876 1491.3 141.604H1496.14ZM1509.36 138.328L1506.97 146H1505.65L1503.8 139.91L1501.96 146H1500.64L1498.23 138.328H1499.53L1501.3 144.768L1503.2 138.328H1504.5L1506.37 144.782L1508.1 138.328H1509.36Z" fill="white"/>
<path fill-rule="evenodd" clip-rule="evenodd" d="M1522 137C1522.44 137 1522.8 137.358 1522.8 137.8V140.2H1525.2C1525.64 140.2 1526 140.558 1526 141C1526 141.442 1525.64 141.8 1525.2 141.8H1522.8V144.2C1522.8 144.642 1522.44 145 1522 145C1521.56 145 1521.2 144.642 1521.2 144.2V141.8H1518.8C1518.36 141.8 1518 141.442 1518 141C1518 140.558 1518.36 140.2 1518.8 140.2H1521.2V137.8C1521.2 137.358 1521.56 137 1522 137Z" fill="white"/>
<path d="M895.274 186.112C895.274 187.04 894.954 187.813 894.314 188.432C893.685 189.04 892.719 189.344 891.418 189.344H889.274V194H887.818V182.848H891.418C892.677 182.848 893.631 183.152 894.282 183.76C894.943 184.368 895.274 185.152 895.274 186.112ZM891.418 188.144C892.229 188.144 892.826 187.968 893.21 187.616C893.594 187.264 893.786 186.763 893.786 186.112C893.786 184.736 892.997 184.048 891.418 184.048H889.274V188.144H891.418ZM898.54 186.656C898.796 186.155 899.158 185.765 899.628 185.488C900.108 185.211 900.689 185.072 901.372 185.072V186.576H900.988C899.356 186.576 898.54 187.461 898.54 189.232V194H897.084V185.232H898.54V186.656ZM911.052 189.28C911.052 189.557 911.036 189.851 911.004 190.16H903.996C904.05 191.024 904.343 191.701 904.876 192.192C905.42 192.672 906.076 192.912 906.844 192.912C907.474 192.912 907.996 192.768 908.412 192.48C908.839 192.181 909.138 191.787 909.308 191.296H910.876C910.642 192.139 910.172 192.827 909.468 193.36C908.764 193.883 907.89 194.144 906.844 194.144C906.012 194.144 905.266 193.957 904.604 193.584C903.954 193.211 903.442 192.683 903.068 192C902.695 191.307 902.508 190.507 902.508 189.6C902.508 188.693 902.69 187.899 903.052 187.216C903.415 186.533 903.922 186.011 904.572 185.648C905.234 185.275 905.991 185.088 906.844 185.088C907.676 185.088 908.412 185.269 909.052 185.632C909.692 185.995 910.183 186.496 910.524 187.136C910.876 187.765 911.052 188.48 911.052 189.28ZM909.548 188.976C909.548 188.421 909.426 187.947 909.18 187.552C908.935 187.147 908.599 186.843 908.172 186.64C907.756 186.427 907.292 186.32 906.78 186.32C906.044 186.32 905.415 186.555 904.892 187.024C904.38 187.493 904.087 188.144 904.012 188.976H909.548ZM914.75 186.432V191.6C914.75 192.027 914.841 192.331 915.022 192.512C915.204 192.683 915.518 192.768 915.966 192.768H917.038V194H915.726C914.916 194 914.308 193.813 913.902 193.44C913.497 193.067 913.294 192.453 913.294 191.6V186.432H912.158V185.232H913.294V183.024H914.75V185.232H917.038V186.432H914.75ZM920.578 186.432V191.6C920.578 192.027 920.669 192.331 920.85 192.512C921.032 192.683 921.346 192.768 921.794 192.768H922.866V194H921.554C920.744 194 920.136 193.813 919.73 193.44C919.325 193.067 919.122 192.453 919.122 191.6V186.432H917.986V185.232H919.122V183.024H920.578V185.232H922.866V186.432H920.578ZM932.182 185.232L926.902 198.128H925.398L927.126 193.904L923.59 185.232H925.206L927.958 192.336L930.678 185.232H932.182ZM945.912 189.28C945.912 189.557 945.896 189.851 945.864 190.16H938.856C938.909 191.024 939.202 191.701 939.736 192.192C940.28 192.672 940.936 192.912 941.704 192.912C942.333 192.912 942.856 192.768 943.272 192.48C943.698 192.181 943.997 191.787 944.168 191.296H945.736C945.501 192.139 945.032 192.827 944.328 193.36C943.624 193.883 942.749 194.144 941.704 194.144C940.872 194.144 940.125 193.957 939.464 193.584C938.813 193.211 938.301 192.683 937.928 192C937.554 191.307 937.368 190.507 937.368 189.6C937.368 188.693 937.549 187.899 937.912 187.216C938.274 186.533 938.781 186.011 939.432 185.648C940.093 185.275 940.85 185.088 941.704 185.088C942.536 185.088 943.272 185.269 943.912 185.632C944.552 185.995 945.042 186.496 945.384 187.136C945.736 187.765 945.912 188.48 945.912 189.28ZM944.408 188.976C944.408 188.421 944.285 187.947 944.04 187.552C943.794 187.147 943.458 186.843 943.032 186.64C942.616 186.427 942.152 186.32 941.64 186.32C940.904 186.32 940.274 186.555 939.752 187.024C939.24 187.493 938.946 188.144 938.872 188.976H944.408ZM958.378 185.072C959.06 185.072 959.668 185.216 960.202 185.504C960.735 185.781 961.156 186.203 961.466 186.768C961.775 187.333 961.93 188.021 961.93 188.832V194H960.49V189.04C960.49 188.165 960.271 187.499 959.834 187.04C959.407 186.571 958.826 186.336 958.09 186.336C957.332 186.336 956.73 186.581 956.282 187.072C955.834 187.552 955.61 188.251 955.61 189.168V194H954.17V189.04C954.17 188.165 953.951 187.499 953.514 187.04C953.087 186.571 952.506 186.336 951.77 186.336C951.012 186.336 950.41 186.581 949.962 187.072C949.514 187.552 949.29 188.251 949.29 189.168V194H947.834V185.232H949.29V186.496C949.578 186.037 949.962 185.685 950.442 185.44C950.932 185.195 951.471 185.072 952.058 185.072C952.794 185.072 953.444 185.237 954.01 185.568C954.575 185.899 954.996 186.384 955.274 187.024C955.519 186.405 955.924 185.925 956.49 185.584C957.055 185.243 957.684 185.072 958.378 185.072ZM965.774 186.848C966.062 186.347 966.489 185.931 967.054 185.6C967.63 185.259 968.297 185.088 969.054 185.088C969.833 185.088 970.537 185.275 971.166 185.648C971.806 186.021 972.307 186.549 972.67 187.232C973.033 187.904 973.214 188.688 973.214 189.584C973.214 190.469 973.033 191.259 972.67 191.952C972.307 192.645 971.806 193.184 971.166 193.568C970.537 193.952 969.833 194.144 969.054 194.144C968.307 194.144 967.646 193.979 967.07 193.648C966.505 193.307 966.073 192.885 965.774 192.384V198.16H964.318V185.232H965.774V186.848ZM971.726 189.584C971.726 188.923 971.593 188.347 971.326 187.856C971.059 187.365 970.697 186.992 970.238 186.736C969.79 186.48 969.294 186.352 968.75 186.352C968.217 186.352 967.721 186.485 967.262 186.752C966.814 187.008 966.451 187.387 966.174 187.888C965.907 188.379 965.774 188.949 965.774 189.6C965.774 190.261 965.907 190.843 966.174 191.344C966.451 191.835 966.814 192.213 967.262 192.48C967.721 192.736 968.217 192.864 968.75 192.864C969.294 192.864 969.79 192.736 970.238 192.48C970.697 192.213 971.059 191.835 971.326 191.344C971.593 190.843 971.726 190.256 971.726 189.584ZM976.906 186.432V191.6C976.906 192.027 976.997 192.331 977.178 192.512C977.36 192.683 977.674 192.768 978.122 192.768H979.194V194H977.882C977.072 194 976.464 193.813 976.058 193.44C975.653 193.067 975.45 192.453 975.45 191.6V186.432H974.314V185.232H975.45V183.024H976.906V185.232H979.194V186.432H976.906ZM988.511 185.232L983.231 198.128H981.727L983.455 193.904L979.919 185.232H981.535L984.287 192.336L987.007 185.232H988.511ZM998.592 185.072C999.253 185.072 999.85 185.216 1000.38 185.504C1000.92 185.781 1001.33 186.203 1001.63 186.768C1001.94 187.333 1002.1 188.021 1002.1 188.832V194H1000.66V189.04C1000.66 188.165 1000.44 187.499 1000 187.04C999.562 186.571 998.965 186.336 998.208 186.336C997.44 186.336 996.826 186.576 996.368 187.056C995.92 187.536 995.696 188.235 995.696 189.152V194H994.24V182.16H995.696V186.48C995.984 186.032 996.378 185.685 996.88 185.44C997.392 185.195 997.962 185.072 998.592 185.072ZM1012.47 189.28C1012.47 189.557 1012.46 189.851 1012.43 190.16H1005.42C1005.47 191.024 1005.76 191.701 1006.3 192.192C1006.84 192.672 1007.5 192.912 1008.27 192.912C1008.9 192.912 1009.42 192.768 1009.83 192.48C1010.26 192.181 1010.56 191.787 1010.73 191.296H1012.3C1012.06 192.139 1011.59 192.827 1010.89 193.36C1010.19 193.883 1009.31 194.144 1008.27 194.144C1007.43 194.144 1006.69 193.957 1006.03 193.584C1005.38 193.211 1004.86 192.683 1004.49 192C1004.12 191.307 1003.93 190.507 1003.93 189.6C1003.93 188.693 1004.11 187.899 1004.47 187.216C1004.84 186.533 1005.34 186.011 1005.99 185.648C1006.66 185.275 1007.41 185.088 1008.27 185.088C1009.1 185.088 1009.83 185.269 1010.47 185.632C1011.11 185.995 1011.6 186.496 1011.95 187.136C1012.3 187.765 1012.47 188.48 1012.47 189.28ZM1010.97 188.976C1010.97 188.421 1010.85 187.947 1010.6 187.552C1010.36 187.147 1010.02 186.843 1009.59 186.64C1009.18 186.427 1008.71 186.32 1008.2 186.32C1007.47 186.32 1006.84 186.555 1006.31 187.024C1005.8 187.493 1005.51 188.144 1005.43 188.976H1010.97ZM1015.85 186.656C1016.11 186.155 1016.47 185.765 1016.94 185.488C1017.42 185.211 1018 185.072 1018.68 185.072V186.576H1018.3C1016.67 186.576 1015.85 187.461 1015.85 189.232V194H1014.4V185.232H1015.85V186.656ZM1028.36 189.28C1028.36 189.557 1028.35 189.851 1028.32 190.16H1021.31C1021.36 191.024 1021.66 191.701 1022.19 192.192C1022.73 192.672 1023.39 192.912 1024.16 192.912C1024.79 192.912 1025.31 192.768 1025.72 192.48C1026.15 192.181 1026.45 191.787 1026.62 191.296H1028.19C1027.95 192.139 1027.48 192.827 1026.78 193.36C1026.08 193.883 1025.2 194.144 1024.16 194.144C1023.32 194.144 1022.58 193.957 1021.92 193.584C1021.27 193.211 1020.75 192.683 1020.38 192C1020.01 191.307 1019.82 190.507 1019.82 189.6C1019.82 188.693 1020 187.899 1020.36 187.216C1020.73 186.533 1021.23 186.011 1021.88 185.648C1022.55 185.275 1023.3 185.088 1024.16 185.088C1024.99 185.088 1025.72 185.269 1026.36 185.632C1027 185.995 1027.5 186.496 1027.84 187.136C1028.19 187.765 1028.36 188.48 1028.36 189.28ZM1026.86 188.976C1026.86 188.421 1026.74 187.947 1026.49 187.552C1026.25 187.147 1025.91 186.843 1025.48 186.64C1025.07 186.427 1024.6 186.32 1024.09 186.32C1023.36 186.32 1022.73 186.555 1022.2 187.024C1021.69 187.493 1021.4 188.144 1021.32 188.976H1026.86ZM1030.75 194.096C1030.47 194.096 1030.24 194 1030.05 193.808C1029.85 193.616 1029.76 193.381 1029.76 193.104C1029.76 192.827 1029.85 192.592 1030.05 192.4C1030.24 192.208 1030.47 192.112 1030.75 192.112C1031.02 192.112 1031.24 192.208 1031.42 192.4C1031.61 192.592 1031.71 192.827 1031.71 193.104C1031.71 193.381 1031.61 193.616 1031.42 193.808C1031.24 194 1031.02 194.096 1030.75 194.096ZM817.954 212.416C817.954 211.328 818.199 210.352 818.69 209.488C819.18 208.613 819.847 207.931 820.69 207.44C821.543 206.949 822.487 206.704 823.522 206.704C824.738 206.704 825.799 206.997 826.706 207.584C827.612 208.171 828.274 209.003 828.69 210.08H826.946C826.636 209.408 826.188 208.891 825.602 208.528C825.026 208.165 824.332 207.984 823.522 207.984C822.743 207.984 822.044 208.165 821.426 208.528C820.807 208.891 820.322 209.408 819.97 210.08C819.618 210.741 819.442 211.52 819.442 212.416C819.442 213.301 819.618 214.08 819.97 214.752C820.322 215.413 820.807 215.925 821.426 216.288C822.044 216.651 822.743 216.832 823.522 216.832C824.332 216.832 825.026 216.656 825.602 216.304C826.188 215.941 826.636 215.424 826.946 214.752H828.69C828.274 215.819 827.612 216.645 826.706 217.232C825.799 217.808 824.738 218.096 823.522 218.096C822.487 218.096 821.543 217.856 820.69 217.376C819.847 216.885 819.18 216.208 818.69 215.344C818.199 214.48 817.954 213.504 817.954 212.416ZM832.313 210.656C832.569 210.155 832.932 209.765 833.401 209.488C833.881 209.211 834.462 209.072 835.145 209.072V210.576H834.761C833.129 210.576 832.313 211.461 832.313 213.232V218H830.857V209.232H832.313V210.656ZM844.826 213.28C844.826 213.557 844.81 213.851 844.778 214.16H837.77C837.823 215.024 838.116 215.701 838.65 216.192C839.194 216.672 839.85 216.912 840.618 216.912C841.247 216.912 841.77 216.768 842.186 216.48C842.612 216.181 842.911 215.787 843.082 215.296H844.65C844.415 216.139 843.946 216.827 843.242 217.36C842.538 217.883 841.663 218.144 840.618 218.144C839.786 218.144 839.039 217.957 838.378 217.584C837.727 217.211 837.215 216.683 836.842 216C836.468 215.307 836.282 214.507 836.282 213.6C836.282 212.693 836.463 211.899 836.826 211.216C837.188 210.533 837.695 210.011 838.346 209.648C839.007 209.275 839.764 209.088 840.618 209.088C841.45 209.088 842.186 209.269 842.826 209.632C843.466 209.995 843.956 210.496 844.298 211.136C844.65 211.765 844.826 212.48 844.826 213.28ZM843.322 212.976C843.322 212.421 843.199 211.947 842.954 211.552C842.708 211.147 842.372 210.843 841.946 210.64C841.53 210.427 841.066 210.32 840.554 210.32C839.818 210.32 839.188 210.555 838.666 211.024C838.154 211.493 837.86 212.144 837.786 212.976H843.322ZM846.204 213.584C846.204 212.688 846.385 211.904 846.748 211.232C847.11 210.549 847.606 210.021 848.236 209.648C848.876 209.275 849.585 209.088 850.364 209.088C851.132 209.088 851.798 209.253 852.364 209.584C852.929 209.915 853.35 210.331 853.628 210.832V209.232H855.1V218H853.628V216.368C853.34 216.88 852.908 217.307 852.332 217.648C851.766 217.979 851.105 218.144 850.348 218.144C849.569 218.144 848.865 217.952 848.236 217.568C847.606 217.184 847.11 216.645 846.748 215.952C846.385 215.259 846.204 214.469 846.204 213.584ZM853.628 213.6C853.628 212.939 853.494 212.363 853.228 211.872C852.961 211.381 852.598 211.008 852.14 210.752C851.692 210.485 851.196 210.352 850.652 210.352C850.108 210.352 849.612 210.48 849.164 210.736C848.716 210.992 848.358 211.365 848.092 211.856C847.825 212.347 847.692 212.923 847.692 213.584C847.692 214.256 847.825 214.843 848.092 215.344C848.358 215.835 848.716 216.213 849.164 216.48C849.612 216.736 850.108 216.864 850.652 216.864C851.196 216.864 851.692 216.736 852.14 216.48C852.598 216.213 852.961 215.835 853.228 215.344C853.494 214.843 853.628 214.261 853.628 213.6ZM859.336 210.432V215.6C859.336 216.027 859.427 216.331 859.608 216.512C859.789 216.683 860.104 216.768 860.552 216.768H861.624V218H860.312C859.501 218 858.893 217.813 858.488 217.44C858.083 217.067 857.88 216.453 857.88 215.6V210.432H856.744V209.232H857.88V207.024H859.336V209.232H861.624V210.432H859.336ZM871.388 213.28C871.388 213.557 871.372 213.851 871.34 214.16H864.332C864.386 215.024 864.679 215.701 865.212 216.192C865.756 216.672 866.412 216.912 867.18 216.912C867.81 216.912 868.332 216.768 868.748 216.48C869.175 216.181 869.474 215.787 869.644 215.296H871.212C870.978 216.139 870.508 216.827 869.804 217.36C869.1 217.883 868.226 218.144 867.18 218.144C866.348 218.144 865.602 217.957 864.94 217.584C864.29 217.211 863.778 216.683 863.404 216C863.031 215.307 862.844 214.507 862.844 213.6C862.844 212.693 863.026 211.899 863.388 211.216C863.751 210.533 864.258 210.011 864.908 209.648C865.57 209.275 866.327 209.088 867.18 209.088C868.012 209.088 868.748 209.269 869.388 209.632C870.028 209.995 870.519 210.496 870.86 211.136C871.212 211.765 871.388 212.48 871.388 213.28ZM869.884 212.976C869.884 212.421 869.762 211.947 869.516 211.552C869.271 211.147 868.935 210.843 868.508 210.64C868.092 210.427 867.628 210.32 867.116 210.32C866.38 210.32 865.751 210.555 865.228 211.024C864.716 211.493 864.423 212.144 864.348 212.976H869.884ZM877.032 213.584C877.032 212.688 877.213 211.904 877.576 211.232C877.938 210.549 878.434 210.021 879.064 209.648C879.704 209.275 880.413 209.088 881.192 209.088C881.96 209.088 882.626 209.253 883.192 209.584C883.757 209.915 884.178 210.331 884.456 210.832V209.232H885.928V218H884.456V216.368C884.168 216.88 883.736 217.307 883.16 217.648C882.594 217.979 881.933 218.144 881.176 218.144C880.397 218.144 879.693 217.952 879.064 217.568C878.434 217.184 877.938 216.645 877.576 215.952C877.213 215.259 877.032 214.469 877.032 213.584ZM884.456 213.6C884.456 212.939 884.322 212.363 884.056 211.872C883.789 211.381 883.426 211.008 882.968 210.752C882.52 210.485 882.024 210.352 881.48 210.352C880.936 210.352 880.44 210.48 879.992 210.736C879.544 210.992 879.186 211.365 878.92 211.856C878.653 212.347 878.52 212.923 878.52 213.584C878.52 214.256 878.653 214.843 878.92 215.344C879.186 215.835 879.544 216.213 879.992 216.48C880.44 216.736 880.936 216.864 881.48 216.864C882.024 216.864 882.52 216.736 882.968 216.48C883.426 216.213 883.789 215.835 884.056 215.344C884.322 214.843 884.456 214.261 884.456 213.6ZM896.926 209.072C897.993 209.072 898.857 209.397 899.518 210.048C900.179 210.688 900.51 211.616 900.51 212.832V218H899.07V213.04C899.07 212.165 898.851 211.499 898.414 211.04C897.977 210.571 897.379 210.336 896.622 210.336C895.854 210.336 895.241 210.576 894.782 211.056C894.334 211.536 894.11 212.235 894.11 213.152V218H892.654V209.232H894.11V210.48C894.398 210.032 894.787 209.685 895.278 209.44C895.779 209.195 896.329 209.072 896.926 209.072ZM910.888 213.28C910.888 213.557 910.872 213.851 910.84 214.16H903.832C903.886 215.024 904.179 215.701 904.712 216.192C905.256 216.672 905.912 216.912 906.68 216.912C907.31 216.912 907.832 216.768 908.248 216.48C908.675 216.181 908.974 215.787 909.144 215.296H910.712C910.478 216.139 910.008 216.827 909.304 217.36C908.6 217.883 907.726 218.144 906.68 218.144C905.848 218.144 905.102 217.957 904.44 217.584C903.79 217.211 903.278 216.683 902.904 216C902.531 215.307 902.344 214.507 902.344 213.6C902.344 212.693 902.526 211.899 902.888 211.216C903.251 210.533 903.758 210.011 904.408 209.648C905.07 209.275 905.827 209.088 906.68 209.088C907.512 209.088 908.248 209.269 908.888 209.632C909.528 209.995 910.019 210.496 910.36 211.136C910.712 211.765 910.888 212.48 910.888 213.28ZM909.384 212.976C909.384 212.421 909.262 211.947 909.016 211.552C908.771 211.147 908.435 210.843 908.008 210.64C907.592 210.427 907.128 210.32 906.616 210.32C905.88 210.32 905.251 210.555 904.728 211.024C904.216 211.493 903.923 212.144 903.848 212.976H909.384ZM924.49 209.232L921.754 218H920.25L918.138 211.04L916.026 218H914.522L911.77 209.232H913.258L915.274 216.592L917.45 209.232H918.938L921.066 216.608L923.05 209.232H924.49ZM931.657 210.848C931.945 210.347 932.371 209.931 932.937 209.6C933.513 209.259 934.179 209.088 934.937 209.088C935.715 209.088 936.419 209.275 937.049 209.648C937.689 210.021 938.19 210.549 938.553 211.232C938.915 211.904 939.097 212.688 939.097 213.584C939.097 214.469 938.915 215.259 938.553 215.952C938.19 216.645 937.689 217.184 937.049 217.568C936.419 217.952 935.715 218.144 934.937 218.144C934.19 218.144 933.529 217.979 932.953 217.648C932.387 217.307 931.955 216.885 931.657 216.384V222.16H930.201V209.232H931.657V210.848ZM937.609 213.584C937.609 212.923 937.475 212.347 937.209 211.856C936.942 211.365 936.579 210.992 936.121 210.736C935.673 210.48 935.177 210.352 934.633 210.352C934.099 210.352 933.603 210.485 933.145 210.752C932.697 211.008 932.334 211.387 932.057 211.888C931.79 212.379 931.657 212.949 931.657 213.6C931.657 214.261 931.79 214.843 932.057 215.344C932.334 215.835 932.697 216.213 933.145 216.48C933.603 216.736 934.099 216.864 934.633 216.864C935.177 216.864 935.673 216.736 936.121 216.48C936.579 216.213 936.942 215.835 937.209 215.344C937.475 214.843 937.609 214.256 937.609 213.584ZM942.469 210.656C942.725 210.155 943.088 209.765 943.557 209.488C944.037 209.211 944.619 209.072 945.301 209.072V210.576H944.917C943.285 210.576 942.469 211.461 942.469 213.232V218H941.013V209.232H942.469V210.656ZM950.806 218.144C949.985 218.144 949.238 217.957 948.566 217.584C947.905 217.211 947.382 216.683 946.998 216C946.625 215.307 946.438 214.507 946.438 213.6C946.438 212.704 946.63 211.915 947.014 211.232C947.409 210.539 947.942 210.011 948.614 209.648C949.286 209.275 950.038 209.088 950.87 209.088C951.702 209.088 952.454 209.275 953.126 209.648C953.798 210.011 954.326 210.533 954.71 211.216C955.105 211.899 955.302 212.693 955.302 213.6C955.302 214.507 955.099 215.307 954.694 216C954.299 216.683 953.761 217.211 953.078 217.584C952.395 217.957 951.638 218.144 950.806 218.144ZM950.806 216.864C951.329 216.864 951.819 216.741 952.278 216.496C952.737 216.251 953.105 215.883 953.382 215.392C953.67 214.901 953.814 214.304 953.814 213.6C953.814 212.896 953.675 212.299 953.398 211.808C953.121 211.317 952.758 210.955 952.31 210.72C951.862 210.475 951.377 210.352 950.854 210.352C950.321 210.352 949.83 210.475 949.382 210.72C948.945 210.955 948.593 211.317 948.326 211.808C948.059 212.299 947.926 212.896 947.926 213.6C947.926 214.315 948.054 214.917 948.31 215.408C948.577 215.899 948.929 216.267 949.366 216.512C949.803 216.747 950.283 216.864 950.806 216.864ZM958 207.808C957.723 207.808 957.488 207.712 957.296 207.52C957.115 207.328 957.024 207.093 957.024 206.816C957.024 206.539 957.115 206.304 957.296 206.112C957.488 205.92 957.723 205.824 958 205.824C958.278 205.824 958.507 205.92 958.688 206.112C958.88 206.304 958.976 206.539 958.976 206.816C958.976 207.093 958.88 207.328 958.688 207.52C958.507 207.712 958.278 207.808 958 207.808ZM958.72 219.904C958.72 220.683 958.523 221.253 958.128 221.616C957.734 221.979 957.158 222.16 956.4 222.16H955.552V220.928H956.16C956.566 220.928 956.848 220.848 957.008 220.688C957.179 220.528 957.264 220.256 957.264 219.872V209.232H958.72V219.904ZM969.185 213.28C969.185 213.557 969.169 213.851 969.137 214.16H962.129C962.182 215.024 962.476 215.701 963.009 216.192C963.553 216.672 964.209 216.912 964.977 216.912C965.606 216.912 966.129 216.768 966.545 216.48C966.972 216.181 967.27 215.787 967.441 215.296H969.009C968.774 216.139 968.305 216.827 967.601 217.36C966.897 217.883 966.022 218.144 964.977 218.144C964.145 218.144 963.398 217.957 962.737 217.584C962.086 217.211 961.574 216.683 961.201 216C960.828 215.307 960.641 214.507 960.641 213.6C960.641 212.693 960.822 211.899 961.185 211.216C961.548 210.533 962.054 210.011 962.705 209.648C963.366 209.275 964.124 209.088 964.977 209.088C965.809 209.088 966.545 209.269 967.185 209.632C967.825 209.995 968.316 210.496 968.657 211.136C969.009 211.765 969.185 212.48 969.185 213.28ZM967.681 212.976C967.681 212.421 967.558 211.947 967.313 211.552C967.068 211.147 966.732 210.843 966.305 210.64C965.889 210.427 965.425 210.32 964.913 210.32C964.177 210.32 963.548 210.555 963.025 211.024C962.513 211.493 962.22 212.144 962.145 212.976H967.681ZM970.563 213.6C970.563 212.693 970.744 211.904 971.107 211.232C971.47 210.549 971.971 210.021 972.611 209.648C973.262 209.275 974.003 209.088 974.835 209.088C975.912 209.088 976.798 209.349 977.491 209.872C978.195 210.395 978.659 211.12 978.883 212.048H977.315C977.166 211.515 976.872 211.093 976.435 210.784C976.008 210.475 975.475 210.32 974.835 210.32C974.003 210.32 973.331 210.608 972.819 211.184C972.307 211.749 972.051 212.555 972.051 213.6C972.051 214.656 972.307 215.472 972.819 216.048C973.331 216.624 974.003 216.912 974.835 216.912C975.475 216.912 976.008 216.763 976.435 216.464C976.862 216.165 977.155 215.739 977.315 215.184H978.883C978.648 216.08 978.179 216.8 977.475 217.344C976.771 217.877 975.891 218.144 974.835 218.144C974.003 218.144 973.262 217.957 972.611 217.584C971.971 217.211 971.47 216.683 971.107 216C970.744 215.317 970.563 214.517 970.563 213.6ZM982.602 210.432V215.6C982.602 216.027 982.692 216.331 982.874 216.512C983.055 216.683 983.37 216.768 983.818 216.768H984.89V218H983.578C982.767 218 982.159 217.813 981.754 217.44C981.348 217.067 981.146 216.453 981.146 215.6V210.432H980.01V209.232H981.146V207.024H982.602V209.232H984.89V210.432H982.602ZM992.696 210.432V215.6C992.696 216.027 992.786 216.331 992.968 216.512C993.149 216.683 993.464 216.768 993.911 216.768H994.984V218H993.672C992.861 218 992.253 217.813 991.848 217.44C991.442 217.067 991.24 216.453 991.24 215.6V210.432H990.104V209.232H991.24V207.024H992.696V209.232H994.984V210.432H992.696ZM1000.57 218.144C999.75 218.144 999.004 217.957 998.332 217.584C997.67 217.211 997.148 216.683 996.764 216C996.39 215.307 996.204 214.507 996.204 213.6C996.204 212.704 996.396 211.915 996.78 211.232C997.174 210.539 997.708 210.011 998.38 209.648C999.052 209.275 999.804 209.088 1000.64 209.088C1001.47 209.088 1002.22 209.275 1002.89 209.648C1003.56 210.011 1004.09 210.533 1004.48 211.216C1004.87 211.899 1005.07 212.693 1005.07 213.6C1005.07 214.507 1004.86 215.307 1004.46 216C1004.06 216.683 1003.53 217.211 1002.84 217.584C1002.16 217.957 1001.4 218.144 1000.57 218.144ZM1000.57 216.864C1001.09 216.864 1001.58 216.741 1002.04 216.496C1002.5 216.251 1002.87 215.883 1003.15 215.392C1003.44 214.901 1003.58 214.304 1003.58 213.6C1003.58 212.896 1003.44 212.299 1003.16 211.808C1002.89 211.317 1002.52 210.955 1002.08 210.72C1001.63 210.475 1001.14 210.352 1000.62 210.352C1000.09 210.352 999.596 210.475 999.148 210.72C998.71 210.955 998.358 211.317 998.092 211.808C997.825 212.299 997.692 212.896 997.692 213.6C997.692 214.315 997.82 214.917 998.076 215.408C998.342 215.899 998.694 216.267 999.132 216.512C999.569 216.747 1000.05 216.864 1000.57 216.864ZM1014.86 209.088C1015.62 209.088 1016.28 209.253 1016.85 209.584C1017.42 209.915 1017.85 210.331 1018.13 210.832V209.232H1019.6V218.192C1019.6 218.992 1019.43 219.701 1019.09 220.32C1018.75 220.949 1018.26 221.44 1017.62 221.792C1016.99 222.144 1016.25 222.32 1015.41 222.32C1014.26 222.32 1013.3 222.048 1012.53 221.504C1011.76 220.96 1011.31 220.219 1011.17 219.28H1012.61C1012.77 219.813 1013.1 220.24 1013.6 220.56C1014.1 220.891 1014.7 221.056 1015.41 221.056C1016.21 221.056 1016.86 220.805 1017.36 220.304C1017.87 219.803 1018.13 219.099 1018.13 218.192V216.352C1017.84 216.864 1017.41 217.291 1016.85 217.632C1016.28 217.973 1015.62 218.144 1014.86 218.144C1014.08 218.144 1013.38 217.952 1012.74 217.568C1012.11 217.184 1011.61 216.645 1011.25 215.952C1010.88 215.259 1010.7 214.469 1010.7 213.584C1010.7 212.688 1010.88 211.904 1011.25 211.232C1011.61 210.549 1012.11 210.021 1012.74 209.648C1013.38 209.275 1014.08 209.088 1014.86 209.088ZM1018.13 213.6C1018.13 212.939 1017.99 212.363 1017.73 211.872C1017.46 211.381 1017.1 211.008 1016.64 210.752C1016.19 210.485 1015.7 210.352 1015.15 210.352C1014.61 210.352 1014.11 210.48 1013.66 210.736C1013.22 210.992 1012.86 211.365 1012.59 211.856C1012.32 212.347 1012.19 212.923 1012.19 213.584C1012.19 214.256 1012.32 214.843 1012.59 215.344C1012.86 215.835 1013.22 216.213 1013.66 216.48C1014.11 216.736 1014.61 216.864 1015.15 216.864C1015.7 216.864 1016.19 216.736 1016.64 216.48C1017.1 216.213 1017.46 215.835 1017.73 215.344C1017.99 214.843 1018.13 214.261 1018.13 213.6ZM1030.06 213.28C1030.06 213.557 1030.04 213.851 1030.01 214.16H1023C1023.06 215.024 1023.35 215.701 1023.88 216.192C1024.43 216.672 1025.08 216.912 1025.85 216.912C1026.48 216.912 1027 216.768 1027.42 216.48C1027.85 216.181 1028.15 215.787 1028.32 215.296H1029.88C1029.65 216.139 1029.18 216.827 1028.48 217.36C1027.77 217.883 1026.9 218.144 1025.85 218.144C1025.02 218.144 1024.27 217.957 1023.61 217.584C1022.96 217.211 1022.45 216.683 1022.08 216C1021.7 215.307 1021.52 214.507 1021.52 213.6C1021.52 212.693 1021.7 211.899 1022.06 211.216C1022.42 210.533 1022.93 210.011 1023.58 209.648C1024.24 209.275 1025 209.088 1025.85 209.088C1026.68 209.088 1027.42 209.269 1028.06 209.632C1028.7 209.995 1029.19 210.496 1029.53 211.136C1029.88 211.765 1030.06 212.48 1030.06 213.28ZM1028.56 212.976C1028.56 212.421 1028.43 211.947 1028.19 211.552C1027.94 211.147 1027.61 210.843 1027.18 210.64C1026.76 210.427 1026.3 210.32 1025.79 210.32C1025.05 210.32 1024.42 210.555 1023.9 211.024C1023.39 211.493 1023.09 212.144 1023.02 212.976H1028.56ZM1033.76 210.432V215.6C1033.76 216.027 1033.85 216.331 1034.03 216.512C1034.21 216.683 1034.53 216.768 1034.97 216.768H1036.05V218H1034.73C1033.92 218 1033.32 217.813 1032.91 217.44C1032.5 217.067 1032.3 216.453 1032.3 215.6V210.432H1031.17V209.232H1032.3V207.024H1033.76V209.232H1036.05V210.432H1033.76ZM1045.18 218.144C1044.51 218.144 1043.91 218.032 1043.37 217.808C1042.84 217.573 1042.42 217.253 1042.11 216.848C1041.8 216.432 1041.63 215.957 1041.6 215.424H1043.1C1043.14 215.861 1043.35 216.219 1043.71 216.496C1044.08 216.773 1044.57 216.912 1045.16 216.912C1045.72 216.912 1046.16 216.789 1046.48 216.544C1046.8 216.299 1046.96 215.989 1046.96 215.616C1046.96 215.232 1046.79 214.949 1046.44 214.768C1046.1 214.576 1045.57 214.389 1044.86 214.208C1044.21 214.037 1043.68 213.867 1043.26 213.696C1042.85 213.515 1042.5 213.253 1042.2 212.912C1041.92 212.56 1041.77 212.101 1041.77 211.536C1041.77 211.088 1041.91 210.677 1042.17 210.304C1042.44 209.931 1042.82 209.637 1043.31 209.424C1043.8 209.2 1044.36 209.088 1044.99 209.088C1045.96 209.088 1046.74 209.333 1047.34 209.824C1047.94 210.315 1048.26 210.987 1048.3 211.84H1046.84C1046.81 211.381 1046.63 211.013 1046.28 210.736C1045.95 210.459 1045.51 210.32 1044.94 210.32C1044.42 210.32 1044 210.432 1043.69 210.656C1043.38 210.88 1043.23 211.173 1043.23 211.536C1043.23 211.824 1043.32 212.064 1043.5 212.256C1043.69 212.437 1043.93 212.587 1044.2 212.704C1044.49 212.811 1044.89 212.933 1045.39 213.072C1046.02 213.243 1046.53 213.413 1046.92 213.584C1047.32 213.744 1047.65 213.989 1047.93 214.32C1048.22 214.651 1048.37 215.083 1048.38 215.616C1048.38 216.096 1048.25 216.528 1047.98 216.912C1047.71 217.296 1047.33 217.6 1046.84 217.824C1046.36 218.037 1045.81 218.144 1045.18 218.144ZM1052.21 210.432V215.6C1052.21 216.027 1052.3 216.331 1052.48 216.512C1052.66 216.683 1052.98 216.768 1053.43 216.768H1054.5V218H1053.19C1052.38 218 1051.77 217.813 1051.36 217.44C1050.96 217.067 1050.76 216.453 1050.76 215.6V210.432H1049.62V209.232H1050.76V207.024H1052.21V209.232H1054.5V210.432H1052.21ZM1055.72 213.584C1055.72 212.688 1055.9 211.904 1056.26 211.232C1056.63 210.549 1057.12 210.021 1057.75 209.648C1058.39 209.275 1059.1 209.088 1059.88 209.088C1060.65 209.088 1061.31 209.253 1061.88 209.584C1062.44 209.915 1062.87 210.331 1063.14 210.832V209.232H1064.62V218H1063.14V216.368C1062.86 216.88 1062.42 217.307 1061.85 217.648C1061.28 217.979 1060.62 218.144 1059.86 218.144C1059.08 218.144 1058.38 217.952 1057.75 217.568C1057.12 217.184 1056.63 216.645 1056.26 215.952C1055.9 215.259 1055.72 214.469 1055.72 213.584ZM1063.14 213.6C1063.14 212.939 1063.01 212.363 1062.74 211.872C1062.48 211.381 1062.11 211.008 1061.66 210.752C1061.21 210.485 1060.71 210.352 1060.17 210.352C1059.62 210.352 1059.13 210.48 1058.68 210.736C1058.23 210.992 1057.87 211.365 1057.61 211.856C1057.34 212.347 1057.21 212.923 1057.21 213.584C1057.21 214.256 1057.34 214.843 1057.61 215.344C1057.87 215.835 1058.23 216.213 1058.68 216.48C1059.13 216.736 1059.62 216.864 1060.17 216.864C1060.71 216.864 1061.21 216.736 1061.66 216.48C1062.11 216.213 1062.48 215.835 1062.74 215.344C1063.01 214.843 1063.14 214.261 1063.14 213.6ZM1068.53 210.656C1068.79 210.155 1069.15 209.765 1069.62 209.488C1070.1 209.211 1070.68 209.072 1071.36 209.072V210.576H1070.98C1069.35 210.576 1068.53 211.461 1068.53 213.232V218H1067.08V209.232H1068.53V210.656ZM1074.82 210.432V215.6C1074.82 216.027 1074.91 216.331 1075.09 216.512C1075.27 216.683 1075.59 216.768 1076.04 216.768H1077.11V218H1075.8C1074.99 218 1074.38 217.813 1073.97 217.44C1073.57 217.067 1073.36 216.453 1073.36 215.6V210.432H1072.23V209.232H1073.36V207.024H1074.82V209.232H1077.11V210.432H1074.82ZM1086.87 213.28C1086.87 213.557 1086.86 213.851 1086.82 214.16H1079.82C1079.87 215.024 1080.16 215.701 1080.7 216.192C1081.24 216.672 1081.9 216.912 1082.66 216.912C1083.29 216.912 1083.82 216.768 1084.23 216.48C1084.66 216.181 1084.96 215.787 1085.13 215.296H1086.7C1086.46 216.139 1085.99 216.827 1085.29 217.36C1084.58 217.883 1083.71 218.144 1082.66 218.144C1081.83 218.144 1081.09 217.957 1080.42 217.584C1079.77 217.211 1079.26 216.683 1078.89 216C1078.52 215.307 1078.33 214.507 1078.33 213.6C1078.33 212.693 1078.51 211.899 1078.87 211.216C1079.24 210.533 1079.74 210.011 1080.39 209.648C1081.05 209.275 1081.81 209.088 1082.66 209.088C1083.5 209.088 1084.23 209.269 1084.87 209.632C1085.51 209.995 1086 210.496 1086.34 211.136C1086.7 211.765 1086.87 212.48 1086.87 213.28ZM1085.37 212.976C1085.37 212.421 1085.25 211.947 1085 211.552C1084.76 211.147 1084.42 210.843 1083.99 210.64C1083.58 210.427 1083.11 210.32 1082.6 210.32C1081.86 210.32 1081.24 210.555 1080.71 211.024C1080.2 211.493 1079.91 212.144 1079.83 212.976H1085.37ZM1088.25 213.584C1088.25 212.688 1088.43 211.904 1088.79 211.232C1089.16 210.549 1089.65 210.021 1090.28 209.648C1090.92 209.275 1091.64 209.088 1092.43 209.088C1093.11 209.088 1093.74 209.248 1094.33 209.568C1094.92 209.877 1095.37 210.288 1095.67 210.8V206.16H1097.15V218H1095.67V216.352C1095.39 216.875 1094.96 217.307 1094.39 217.648C1093.83 217.979 1093.17 218.144 1092.41 218.144C1091.63 218.144 1090.92 217.952 1090.28 217.568C1089.65 217.184 1089.16 216.645 1088.79 215.952C1088.43 215.259 1088.25 214.469 1088.25 213.584ZM1095.67 213.6C1095.67 212.939 1095.54 212.363 1095.27 211.872C1095.01 211.381 1094.65 211.008 1094.19 210.752C1093.74 210.485 1093.24 210.352 1092.7 210.352C1092.15 210.352 1091.66 210.48 1091.21 210.736C1090.76 210.992 1090.41 211.365 1090.14 211.856C1089.87 212.347 1089.74 212.923 1089.74 213.584C1089.74 214.256 1089.87 214.843 1090.14 215.344C1090.41 215.835 1090.76 216.213 1091.21 216.48C1091.66 216.736 1092.15 216.864 1092.7 216.864C1093.24 216.864 1093.74 216.736 1094.19 216.48C1094.65 216.213 1095.01 215.835 1095.27 215.344C1095.54 214.843 1095.67 214.261 1095.67 213.6ZM1100.07 218.096C1099.79 218.096 1099.56 218 1099.37 217.808C1099.18 217.616 1099.08 217.381 1099.08 217.104C1099.08 216.827 1099.18 216.592 1099.37 216.4C1099.56 216.208 1099.79 216.112 1100.07 216.112C1100.34 216.112 1100.56 216.208 1100.74 216.4C1100.94 216.592 1101.03 216.827 1101.03 217.104C1101.03 217.381 1100.94 217.616 1100.74 217.808C1100.56 218 1100.34 218.096 1100.07 218.096Z" fill="white"/>
<path d="M817.266 219.6H985.418V220.4H817.266V219.6Z" fill="white"/>
<rect x="376" y="121" width="1047" height="40" rx="8" fill="#27272A"/>
<path d="M421.242 146.098C420.598 146.098 420.02 145.986 419.506 145.762C419.002 145.529 418.606 145.211 418.316 144.81C418.027 144.399 417.878 143.928 417.868 143.396H419.226C419.273 143.853 419.46 144.241 419.786 144.558C420.122 144.866 420.608 145.02 421.242 145.02C421.849 145.02 422.325 144.871 422.67 144.572C423.025 144.264 423.202 143.872 423.202 143.396C423.202 143.023 423.1 142.719 422.894 142.486C422.689 142.253 422.432 142.075 422.124 141.954C421.816 141.833 421.401 141.702 420.878 141.562C420.234 141.394 419.716 141.226 419.324 141.058C418.942 140.89 418.61 140.629 418.33 140.274C418.06 139.91 417.924 139.425 417.924 138.818C417.924 138.286 418.06 137.815 418.33 137.404C418.601 136.993 418.979 136.676 419.464 136.452C419.959 136.228 420.524 136.116 421.158 136.116C422.073 136.116 422.82 136.345 423.398 136.802C423.986 137.259 424.318 137.866 424.392 138.622H422.992C422.946 138.249 422.75 137.922 422.404 137.642C422.059 137.353 421.602 137.208 421.032 137.208C420.5 137.208 420.066 137.348 419.73 137.628C419.394 137.899 419.226 138.281 419.226 138.776C419.226 139.131 419.324 139.42 419.52 139.644C419.726 139.868 419.973 140.041 420.262 140.162C420.561 140.274 420.976 140.405 421.508 140.554C422.152 140.731 422.67 140.909 423.062 141.086C423.454 141.254 423.79 141.52 424.07 141.884C424.35 142.239 424.49 142.724 424.49 143.34C424.49 143.816 424.364 144.264 424.112 144.684C423.86 145.104 423.487 145.445 422.992 145.706C422.498 145.967 421.914 146.098 421.242 146.098ZM433.365 141.87C433.365 142.113 433.351 142.369 433.323 142.64H427.191C427.238 143.396 427.494 143.989 427.961 144.418C428.437 144.838 429.011 145.048 429.683 145.048C430.234 145.048 430.691 144.922 431.055 144.67C431.428 144.409 431.69 144.063 431.839 143.634H433.211C433.006 144.371 432.595 144.973 431.979 145.44C431.363 145.897 430.598 146.126 429.683 146.126C428.955 146.126 428.302 145.963 427.723 145.636C427.154 145.309 426.706 144.847 426.379 144.25C426.052 143.643 425.889 142.943 425.889 142.15C425.889 141.357 426.048 140.661 426.365 140.064C426.682 139.467 427.126 139.009 427.695 138.692C428.274 138.365 428.936 138.202 429.683 138.202C430.411 138.202 431.055 138.361 431.615 138.678C432.175 138.995 432.604 139.434 432.903 139.994C433.211 140.545 433.365 141.17 433.365 141.87ZM432.049 141.604C432.049 141.119 431.942 140.703 431.727 140.358C431.512 140.003 431.218 139.737 430.845 139.56C430.481 139.373 430.075 139.28 429.627 139.28C428.983 139.28 428.432 139.485 427.975 139.896C427.527 140.307 427.27 140.876 427.205 141.604H432.049ZM434.571 142.136C434.571 141.352 434.729 140.666 435.047 140.078C435.364 139.481 435.798 139.019 436.349 138.692C436.909 138.365 437.529 138.202 438.211 138.202C438.883 138.202 439.466 138.347 439.961 138.636C440.455 138.925 440.824 139.289 441.067 139.728V138.328H442.355V146H441.067V144.572C440.815 145.02 440.437 145.393 439.933 145.692C439.438 145.981 438.859 146.126 438.197 146.126C437.515 146.126 436.899 145.958 436.349 145.622C435.798 145.286 435.364 144.815 435.047 144.208C434.729 143.601 434.571 142.911 434.571 142.136ZM441.067 142.15C441.067 141.571 440.95 141.067 440.717 140.638C440.483 140.209 440.166 139.882 439.765 139.658C439.373 139.425 438.939 139.308 438.463 139.308C437.987 139.308 437.553 139.42 437.161 139.644C436.769 139.868 436.456 140.195 436.223 140.624C435.989 141.053 435.873 141.557 435.873 142.136C435.873 142.724 435.989 143.237 436.223 143.676C436.456 144.105 436.769 144.437 437.161 144.67C437.553 144.894 437.987 145.006 438.463 145.006C438.939 145.006 439.373 144.894 439.765 144.67C440.166 144.437 440.483 144.105 440.717 143.676C440.95 143.237 441.067 142.729 441.067 142.15ZM445.782 139.574C446.006 139.135 446.323 138.795 446.734 138.552C447.154 138.309 447.662 138.188 448.26 138.188V139.504H447.924C446.496 139.504 445.782 140.279 445.782 141.828V146H444.508V138.328H445.782V139.574ZM449.254 142.15C449.254 141.357 449.413 140.666 449.73 140.078C450.048 139.481 450.486 139.019 451.046 138.692C451.616 138.365 452.264 138.202 452.992 138.202C453.935 138.202 454.71 138.431 455.316 138.888C455.932 139.345 456.338 139.98 456.534 140.792H455.162C455.032 140.325 454.775 139.957 454.392 139.686C454.019 139.415 453.552 139.28 452.992 139.28C452.264 139.28 451.676 139.532 451.228 140.036C450.78 140.531 450.556 141.235 450.556 142.15C450.556 143.074 450.78 143.788 451.228 144.292C451.676 144.796 452.264 145.048 452.992 145.048C453.552 145.048 454.019 144.917 454.392 144.656C454.766 144.395 455.022 144.021 455.162 143.536H456.534C456.329 144.32 455.918 144.95 455.302 145.426C454.686 145.893 453.916 146.126 452.992 146.126C452.264 146.126 451.616 145.963 451.046 145.636C450.486 145.309 450.048 144.847 449.73 144.25C449.413 143.653 449.254 142.953 449.254 142.15ZM462.042 138.188C462.621 138.188 463.144 138.314 463.61 138.566C464.077 138.809 464.441 139.177 464.702 139.672C464.973 140.167 465.108 140.769 465.108 141.478V146H463.848V141.66C463.848 140.895 463.657 140.311 463.274 139.91C462.892 139.499 462.369 139.294 461.706 139.294C461.034 139.294 460.498 139.504 460.096 139.924C459.704 140.344 459.508 140.955 459.508 141.758V146H458.234V135.64H459.508V139.42C459.76 139.028 460.106 138.725 460.544 138.51C460.992 138.295 461.492 138.188 462.042 138.188ZM467.595 146.084C467.353 146.084 467.147 146 466.979 145.832C466.811 145.664 466.727 145.459 466.727 145.216C466.727 144.973 466.811 144.768 466.979 144.6C467.147 144.432 467.353 144.348 467.595 144.348C467.829 144.348 468.025 144.432 468.183 144.6C468.351 144.768 468.435 144.973 468.435 145.216C468.435 145.459 468.351 145.664 468.183 145.832C468.025 146 467.829 146.084 467.595 146.084ZM470.535 146.084C470.292 146.084 470.087 146 469.919 145.832C469.751 145.664 469.667 145.459 469.667 145.216C469.667 144.973 469.751 144.768 469.919 144.6C470.087 144.432 470.292 144.348 470.535 144.348C470.768 144.348 470.964 144.432 471.123 144.6C471.291 144.768 471.375 144.973 471.375 145.216C471.375 145.459 471.291 145.664 471.123 145.832C470.964 146 470.768 146.084 470.535 146.084ZM473.474 146.084C473.232 146.084 473.026 146 472.858 145.832C472.69 145.664 472.606 145.459 472.606 145.216C472.606 144.973 472.69 144.768 472.858 144.6C473.026 144.432 473.232 144.348 473.474 144.348C473.708 144.348 473.904 144.432 474.062 144.6C474.23 144.768 474.314 144.973 474.314 145.216C474.314 145.459 474.23 145.664 474.062 145.832C473.904 146 473.708 146.084 473.474 146.084Z" fill="#A1A1AA"/>
<path d="M409 151L403 145M405 140C405 143.866 401.866 147 398 147C394.134 147 391 143.866 391 140C391 136.134 394.134 133 398 133C401.866 133 405 136.134 405 140Z" stroke="white" stroke-width="1.91451" stroke-linecap="round" stroke-linejoin="round"/>
</g>
<defs>
<linearGradient id="paint0_linear_1_2" x1="1904" y1="16" x2="1864" y2="56" gradientUnits="userSpaceOnUse">
<stop stop-color="#D81B60"/>
<stop offset="1" stop-color="#E53935"/>
</linearGradient>
<linearGradient id="paint1_linear_1_2" x1="36" y1="18" x2="36" y2="54" gradientUnits="userSpaceOnUse">
<stop stop-color="#FF7B28"/>
<stop offset="1" stop-color="#D81B60"/>
</linearGradient>
<clipPath id="clip0_1_2">
<rect width="1920" height="1080" fill="white"/>
</clipPath>
</defs>
</svg>
