<?xml version="1.0" standalone="no"?>
<!DOCTYPE svg PUBLIC "-//W3C//DTD SVG 20010904//EN"
 "http://www.w3.org/TR/2001/REC-SVG-20010904/DTD/svg10.dtd">
<svg version="1.0" xmlns="http://www.w3.org/2000/svg"
 width="700.000000pt" height="700.000000pt" viewBox="0 0 700.000000 700.000000"
 preserveAspectRatio="xMidYMid meet">
<metadata>
Created by potrace 1.14, written by Peter Selinger 2001-2017
</metadata>
<g transform="translate(0.000000,700.000000) scale(0.100000,-0.100000)"
fill="#000000" stroke="none">
<path d="M5205 6556 c-71 -19 -119 -56 -149 -114 -8 -15 -37 -117 -64 -225
-68 -266 -111 -354 -231 -475 -121 -122 -220 -170 -501 -241 -113 -29 -214
-60 -225 -69 -112 -91 -128 -225 -41 -330 34 -39 95 -62 301 -112 244 -60 365
-123 483 -249 108 -116 154 -214 217 -468 26 -104 57 -207 69 -228 61 -107
212 -139 314 -66 52 37 78 96 125 286 25 99 54 204 65 233 51 132 167 277 286
356 61 40 168 92 207 100 99 20 360 91 389 106 39 20 83 71 101 117 25 66 6
159 -43 213 -46 52 -68 61 -264 111 -289 73 -385 119 -506 243 -122 124 -168
219 -232 481 -27 107 -58 208 -71 231 -45 76 -148 121 -230 100z"/>
<path d="M2569 5680 c-65 -18 -130 -77 -148 -134 -6 -17 -67 -227 -135 -467
-69 -240 -134 -458 -144 -485 -95 -240 -293 -454 -529 -573 -65 -32 -191 -77
-314 -110 -41 -11 -96 -27 -124 -35 -192 -56 -378 -109 -425 -122 -182 -49
-207 -60 -251 -105 -43 -44 -61 -95 -57 -159 8 -107 64 -172 177 -206 31 -9
83 -25 116 -35 33 -10 78 -22 100 -28 80 -18 633 -181 686 -201 210 -82 393
-231 518 -422 57 -85 128 -244 150 -333 12 -53 159 -567 216 -756 37 -124 96
-181 202 -195 34 -4 107 12 128 28 30 22 63 56 77 80 10 14 73 223 142 465
137 479 159 546 211 638 115 206 287 366 500 466 65 31 574 188 725 224 99 23
284 82 315 100 95 55 133 180 84 278 -28 55 -46 75 -89 97 -30 15 -219 74
-273 85 -10 2 -55 15 -100 28 -45 14 -91 27 -102 30 -11 3 -76 21 -145 41 -69
20 -143 41 -165 47 -251 70 -410 156 -554 298 -156 156 -229 284 -300 527 -23
76 -51 171 -62 209 -12 39 -31 108 -44 155 -12 47 -30 110 -40 140 -9 30 -32
111 -51 180 -43 154 -69 196 -142 234 -37 19 -113 27 -153 16z"/>
<path d="M4771 2619 c-53 -10 -114 -50 -140 -93 -11 -17 -49 -121 -86 -231
-69 -207 -97 -267 -149 -322 -63 -68 -127 -100 -340 -172 -115 -39 -226 -82
-247 -95 -43 -29 -89 -113 -89 -166 0 -76 37 -149 94 -187 17 -12 121 -51 231
-88 234 -79 278 -101 344 -170 64 -68 82 -105 151 -314 32 -97 65 -192 74
-211 47 -112 190 -163 296 -106 73 39 93 73 169 300 78 230 103 281 169 343
64 60 135 94 343 162 103 34 202 72 220 84 117 78 123 254 13 345 -26 22 -94
50 -238 97 -224 75 -284 105 -350 171 -58 60 -84 113 -160 341 -71 212 -73
218 -113 254 -56 53 -119 72 -192 58z"/>
</g>
</svg>
